<?xml version="1.0" encoding="utf-8"?>
<!-- Generator: Adobe Illustrator 16.0.0, SVG Export Plug-In . SVG Version: 6.00 Build 0)  -->
<!DOCTYPE svg PUBLIC "-//W3C//DTD SVG 1.1//EN" "http://www.w3.org/Graphics/SVG/1.1/DTD/svg11.dtd">
<svg version="1.1" id="Layer_1" xmlns="http://www.w3.org/2000/svg" xmlns:xlink="http://www.w3.org/1999/xlink" x="0px" y="0px"
	 width="180.315px" height="157.064px" viewBox="0 0 180.315 157.064" enable-background="new 0 0 180.315 157.064"
	 xml:space="preserve">
<g>
	<path fill="#FFFFFF" d="M0,0v157.064h180.315V0H0z M1.177,155.888V1.176h177.961v154.712H1.177z"/>
	<g>
		<path fill="#FFFFFF" d="M56.862,28.725H44.469v60.161c0,6.083-3.155,7.547-7.098,7.547c-1.351,0-2.928,0-4.281-0.113v11.267
			c2.028,0.226,3.717,0.226,5.97,0.226c9.351,0,17.801-4.057,17.801-19.829V28.725z"/>
		<path fill="#FFFFFF" d="M103.39,88.096V48.214c0-12.618-6.084-19.49-18.476-19.49H65.311v78.861h19.603
			C97.306,107.586,103.39,100.714,103.39,88.096z M77.703,96.319V39.99h6.985c3.943,0,6.309,2.028,6.309,7.66v41.008
			c0,5.632-2.366,7.661-6.309,7.661H77.703z"/>
		<path fill="#FFFFFF" d="M147.213,55.312V47.65c0-12.617-6.308-19.828-18.477-19.828c-12.167,0-18.475,7.21-18.475,19.828v41.008
			c0,12.619,6.308,19.829,18.475,19.829c12.168,0,18.477-7.21,18.477-19.829V78.181h-11.717v11.267c0,5.633-2.478,7.659-6.42,7.659
			c-3.944,0-6.422-2.026-6.422-7.659V46.862c0-5.634,2.478-7.773,6.422-7.773c3.942,0,6.42,2.139,6.42,7.773v8.449H147.213z"/>
		<path fill="#FFFFFF" d="M40.107,119.422c-0.425-0.364-0.94-0.615-1.542-0.753c-0.431-0.101-1.054-0.151-1.874-0.151H33.07v10.515
			h3.794c0.636,0,1.198-0.059,1.689-0.178c0.491-0.12,0.908-0.296,1.256-0.528c0.346-0.231,0.665-0.55,0.958-0.955
			c0.292-0.403,0.53-0.914,0.717-1.532c0.186-0.616,0.279-1.324,0.279-2.122c0-0.937-0.137-1.771-0.412-2.5
			C41.076,120.49,40.662,119.891,40.107,119.422z M40.053,125.723c-0.184,0.557-0.441,1.002-0.771,1.333
			c-0.234,0.233-0.548,0.415-0.943,0.543c-0.395,0.129-0.939,0.194-1.632,0.194h-2.246v-8.034h2.21c0.827,0,1.427,0.072,1.8,0.215
			c0.516,0.201,0.955,0.596,1.315,1.187c0.361,0.591,0.542,1.435,0.542,2.536C40.329,124.49,40.237,125.166,40.053,125.723z"/>
		<polygon fill="#FFFFFF" points="45.099,124.213 50.915,124.213 50.915,122.979 45.099,122.979 45.099,119.759 51.311,119.759 
			51.311,118.519 43.708,118.519 43.708,129.033 51.554,129.033 51.554,127.793 45.099,127.793 		"/>
		<path fill="#FFFFFF" d="M59.581,123.496c-0.421-0.191-1.197-0.415-2.327-0.671c-1.131-0.256-1.831-0.506-2.098-0.75
			c-0.273-0.244-0.409-0.555-0.409-0.932c0-0.435,0.192-0.808,0.577-1.116c0.385-0.308,0.999-0.462,1.839-0.462
			c0.809,0,1.419,0.169,1.833,0.508c0.414,0.34,0.656,0.842,0.729,1.507l1.333-0.1c-0.022-0.618-0.195-1.17-0.516-1.657
			c-0.32-0.489-0.778-0.858-1.374-1.108c-0.595-0.251-1.283-0.377-2.062-0.377c-0.708,0-1.351,0.119-1.93,0.358
			c-0.578,0.239-1.018,0.589-1.319,1.051c-0.302,0.461-0.452,0.957-0.452,1.488c0,0.482,0.122,0.919,0.37,1.309
			c0.245,0.39,0.62,0.716,1.121,0.979c0.388,0.206,1.064,0.424,2.03,0.656c0.967,0.231,1.591,0.403,1.872,0.513
			c0.441,0.168,0.756,0.374,0.948,0.621c0.19,0.247,0.287,0.535,0.287,0.864c0,0.325-0.099,0.625-0.298,0.901
			c-0.198,0.274-0.501,0.491-0.907,0.648c-0.407,0.158-0.875,0.237-1.405,0.237c-0.599,0-1.136-0.104-1.614-0.312
			c-0.478-0.208-0.831-0.48-1.058-0.817c-0.228-0.338-0.372-0.769-0.434-1.295l-1.312,0.115c0.019,0.702,0.211,1.333,0.577,1.89
			c0.367,0.557,0.871,0.976,1.515,1.251c0.643,0.278,1.439,0.417,2.392,0.417c0.75,0,1.426-0.138,2.026-0.413s1.061-0.66,1.38-1.154
			c0.321-0.495,0.481-1.023,0.481-1.582c0-0.563-0.146-1.062-0.438-1.495C60.644,124.136,60.192,123.779,59.581,123.496z"/>
		<rect x="63.512" y="118.519" fill="#FFFFFF" width="1.391" height="10.515"/>
		<path fill="#FFFFFF" d="M72.276,124.909h3.092v1.958c-0.296,0.262-0.731,0.51-1.306,0.741c-0.574,0.232-1.163,0.349-1.764,0.349
			c-0.694,0-1.349-0.153-1.966-0.459c-0.617-0.306-1.087-0.773-1.41-1.405c-0.322-0.631-0.483-1.417-0.483-2.353
			c0-0.761,0.133-1.466,0.401-2.117c0.159-0.376,0.379-0.724,0.664-1.04c0.284-0.315,0.659-0.57,1.122-0.763
			c0.464-0.195,1.014-0.291,1.649-0.291c0.531,0,1.014,0.092,1.449,0.276c0.436,0.184,0.77,0.429,1.004,0.735
			c0.235,0.306,0.431,0.727,0.588,1.263l1.256-0.345c-0.183-0.708-0.447-1.282-0.796-1.721c-0.349-0.44-0.831-0.783-1.445-1.03
			c-0.614-0.245-1.301-0.368-2.062-0.368c-1.047,0-1.973,0.215-2.777,0.645c-0.803,0.43-1.419,1.089-1.846,1.976
			c-0.428,0.887-0.642,1.843-0.642,2.866c0,1.033,0.214,1.968,0.645,2.805c0.432,0.837,1.068,1.477,1.912,1.917
			c0.844,0.443,1.783,0.665,2.815,0.665c0.765,0,1.511-0.138,2.238-0.413c0.728-0.275,1.432-0.685,2.116-1.23v-3.902l-4.455,0.008
			V124.909z"/>
		<polygon fill="#FFFFFF" points="85.719,126.773 80.194,118.519 78.768,118.519 78.768,129.033 80.102,129.033 80.102,120.771 
			85.625,129.033 87.052,129.033 87.052,118.519 85.719,118.519 		"/>
		<path fill="#FFFFFF" d="M99.575,123.496c-0.421-0.191-1.197-0.415-2.328-0.671c-1.131-0.256-1.83-0.506-2.098-0.75
			c-0.272-0.244-0.408-0.555-0.408-0.932c0-0.435,0.191-0.808,0.578-1.116c0.384-0.308,0.997-0.462,1.839-0.462
			c0.807,0,1.418,0.169,1.833,0.508c0.413,0.34,0.656,0.842,0.728,1.507l1.334-0.1c-0.024-0.618-0.198-1.17-0.517-1.657
			c-0.321-0.489-0.778-0.858-1.374-1.108c-0.595-0.251-1.283-0.377-2.062-0.377c-0.707,0-1.35,0.119-1.929,0.358
			c-0.578,0.239-1.018,0.589-1.319,1.051c-0.302,0.461-0.452,0.957-0.452,1.488c0,0.482,0.123,0.919,0.37,1.309
			c0.246,0.39,0.621,0.716,1.122,0.979c0.388,0.206,1.063,0.424,2.03,0.656c0.966,0.232,1.589,0.403,1.872,0.513
			c0.44,0.168,0.756,0.374,0.947,0.621c0.191,0.247,0.287,0.535,0.287,0.864c0,0.325-0.1,0.625-0.298,0.901
			c-0.198,0.274-0.5,0.491-0.907,0.648c-0.407,0.158-0.875,0.237-1.406,0.237c-0.597,0-1.136-0.104-1.614-0.312
			c-0.478-0.208-0.83-0.48-1.058-0.817c-0.228-0.338-0.372-0.769-0.434-1.295l-1.312,0.115c0.019,0.702,0.212,1.333,0.578,1.89
			c0.365,0.557,0.87,0.976,1.514,1.251c0.643,0.278,1.44,0.417,2.392,0.417c0.751,0,1.427-0.138,2.027-0.413s1.06-0.66,1.38-1.154
			c0.32-0.495,0.481-1.023,0.481-1.582c0-0.563-0.146-1.062-0.439-1.495C100.64,124.136,100.188,123.779,99.575,123.496z"/>
		<polygon fill="#FFFFFF" points="102.481,119.759 105.945,119.759 105.945,129.033 107.336,129.033 107.336,119.759 
			110.815,119.759 110.815,118.519 102.481,118.519 		"/>
		<path fill="#FFFFFF" d="M119.143,124.587c0,1.319-0.218,2.211-0.652,2.675c-0.436,0.463-1.166,0.695-2.189,0.695
			c-0.597,0-1.104-0.117-1.517-0.351s-0.704-0.567-0.875-1.001c-0.169-0.433-0.255-1.105-0.255-2.019v-6.068h-1.391v6.075
			c0,1.114,0.133,1.993,0.401,2.635c0.268,0.644,0.715,1.135,1.34,1.475c0.628,0.34,1.434,0.51,2.418,0.51
			c1.014,0,1.832-0.196,2.456-0.586c0.624-0.39,1.056-0.895,1.295-1.518c0.239-0.622,0.358-1.46,0.358-2.517v-6.075h-1.391V124.587z
			"/>
		<path fill="#FFFFFF" d="M129.888,119.422c-0.426-0.364-0.94-0.615-1.542-0.752c-0.43-0.102-1.054-0.151-1.872-0.151h-3.622v10.515
			h3.794c0.635,0,1.199-0.059,1.688-0.179c0.492-0.12,0.909-0.296,1.256-0.527c0.347-0.231,0.666-0.55,0.958-0.955
			c0.292-0.403,0.531-0.914,0.717-1.532c0.187-0.616,0.279-1.324,0.279-2.122c0-0.937-0.136-1.771-0.412-2.5
			C130.857,120.49,130.442,119.891,129.888,119.422z M129.833,125.723c-0.184,0.557-0.441,1.002-0.771,1.333
			c-0.235,0.233-0.548,0.415-0.944,0.543c-0.394,0.129-0.938,0.194-1.632,0.194h-2.244v-8.034h2.208c0.827,0,1.427,0.072,1.8,0.215
			c0.517,0.201,0.955,0.597,1.316,1.188c0.361,0.591,0.541,1.435,0.541,2.536C130.109,124.491,130.018,125.166,129.833,125.723z"/>
		<rect x="133.696" y="118.519" fill="#FFFFFF" width="1.392" height="10.515"/>
		<path fill="#FFFFFF" d="M144.778,119.027c-0.779-0.463-1.654-0.695-2.625-0.695c-1.482,0-2.693,0.494-3.63,1.481
			c-0.937,0.988-1.406,2.354-1.406,4.099c0,0.923,0.201,1.798,0.603,2.626c0.401,0.827,0.993,1.48,1.771,1.957
			c0.78,0.48,1.665,0.719,2.655,0.719c0.913,0,1.764-0.217,2.553-0.65c0.79-0.433,1.4-1.069,1.829-1.911
			c0.431-0.842,0.646-1.795,0.646-2.861c0-1.053-0.205-1.993-0.613-2.824C146.152,120.138,145.558,119.491,144.778,119.027z
			 M144.724,126.918c-0.677,0.736-1.538,1.104-2.585,1.104c-1.028,0-1.883-0.364-2.564-1.094c-0.681-0.729-1.022-1.728-1.022-2.994
			c0-1.583,0.355-2.713,1.065-3.39c0.71-0.676,1.557-1.014,2.542-1.014c0.693,0,1.319,0.175,1.876,0.526
			c0.558,0.352,0.98,0.848,1.27,1.485c0.289,0.638,0.434,1.385,0.434,2.242C145.739,125.136,145.4,126.181,144.724,126.918z"/>
	</g>
</g>
</svg>
